<?xml version="1.0" encoding="UTF-8"?><svg id="Layer_1" xmlns="http://www.w3.org/2000/svg" viewBox="0 0 800 800"><defs><style>.cls-1{fill:#00aeef;}.cls-2{fill:#ee3d8b;}.cls-3{fill:#fff;}.cls-4{fill:#ffd600;}.cls-5{fill:#273691;}</style></defs><rect class="cls-1" x="-145" y="-145" width="1090" height="1090"/><g><polygon class="cls-3" points="250 371.13 323.33 238.16 400 100 476.67 239 550 371.13 550 624.98 400 699.83 250 624.98 250 371.13"/><g><polygon class="cls-2" points="400 700 550 624.98 550 496.13 471.81 597.01 400 496.13 328.19 597.01 250 496.13 250 624.98 400 700"/><polygon class="cls-5" points="400 658.33 550 583.31 550 471.13 471.81 572.01 400 471.13 328.19 572.01 250 471.13 250 583.31 400 658.33"/><polygon class="cls-1" points="400 633.33 550 558.31 550 446.13 471.81 547.01 400 446.13 328.19 547.01 250 446.13 250 558.31 400 633.33"/><polygon class="cls-4" points="400 608.33 550 533.31 550 421.13 471.81 522.01 400 421.13 328.19 522.01 250 421.13 250 533.31 400 608.33"/><polygon class="cls-4" points="400 583.33 550 508.31 550 371.13 471.81 472.01 400 371.13 328.19 472.01 250 371.13 250 508.31 400 583.33"/><polygon class="cls-5" points="476.67 239 399.77 100 323.33 238.16 400 296.91 476.67 239"/></g></g></svg>